<mxfile host="65bd71144e">
    <diagram name="Page-1" id="QIEHQ9P4s2FlTNxUHukT">
        <mxGraphModel dx="2880" dy="2116" grid="0" gridSize="10" guides="1" tooltips="1" connect="1" arrows="1" fold="1" page="1" pageScale="1" pageWidth="827" pageHeight="1169" math="0" shadow="0">
            <root>
                <mxCell id="0"/>
                <mxCell id="1" parent="0"/>
                <mxCell id="FWAWrkWRwMSGX0GFrVUf-23" value="&lt;p style=&quot;margin:0px;margin-top:4px;text-align:center;&quot;&gt;&lt;i&gt;&amp;lt;&amp;lt;Controller&amp;gt;&amp;gt;&lt;/i&gt;&lt;br&gt;&lt;b&gt;Search&lt;/b&gt;&lt;/p&gt;&lt;hr size=&quot;1&quot; style=&quot;border-style:solid;&quot;&gt;&lt;p style=&quot;margin:0px;margin-left:4px;&quot;&gt;&lt;br&gt;&lt;/p&gt;&lt;hr size=&quot;1&quot; style=&quot;border-style:solid;&quot;&gt;&lt;p style=&quot;margin:0px;margin-left:4px;&quot;&gt;+Search(): void&lt;/p&gt;&lt;p style=&quot;margin:0px;margin-left:4px;&quot;&gt;+searchKeyword(keyword: string): List&amp;lt;Exhibit&amp;gt;&lt;/p&gt;&lt;p style=&quot;margin:0px;margin-left:4px;&quot;&gt;+searchCategory(category: string):&amp;nbsp;&lt;span style=&quot;background-color: transparent; color: light-dark(rgb(0, 0, 0), rgb(255, 255, 255));&quot;&gt;List&amp;lt;Exhibit&amp;gt;&lt;/span&gt;&lt;/p&gt;&lt;p style=&quot;margin:0px;margin-left:4px;&quot;&gt;+isInputValid(input: string): boolean&lt;/p&gt;&lt;p style=&quot;margin:0px;margin-left:4px;&quot;&gt;&lt;span style=&quot;background-color: transparent; color: light-dark(rgb(0, 0, 0), rgb(255, 255, 255));&quot;&gt;+showSearchResults(): List&amp;lt;Exhibit&amp;gt;&lt;/span&gt;&lt;/p&gt;&lt;div&gt;&amp;nbsp;+filterExhibitsByCategory(category: string): List&amp;lt;Exhibit&amp;gt;&lt;/div&gt;&lt;div&gt;&amp;nbsp;+showNoResultFound(): void&lt;/div&gt;&lt;div&gt;&amp;nbsp;+showExhibitUnavailable(): void&lt;/div&gt;&lt;div&gt;&amp;nbsp;+showExhibitNotDownloaded(): void&lt;/div&gt;&lt;div&gt;&amp;nbsp;+getIdOfExhibit(): int&lt;/div&gt;&lt;div&gt;&amp;nbsp;+showExhibitsOnCategory(category: string): List&amp;lt;Exhibit&amp;gt;&lt;/div&gt;&lt;div&gt;&lt;br&gt;&lt;/div&gt;&lt;div&gt;&lt;br&gt;&lt;/div&gt;&lt;div&gt;&lt;br&gt;&lt;/div&gt;&lt;div&gt;&lt;br&gt;&lt;/div&gt;&lt;div&gt;&lt;br&gt;&lt;/div&gt;&lt;div&gt;&lt;br&gt;&lt;/div&gt;" style="verticalAlign=top;align=left;overflow=fill;html=1;whiteSpace=wrap;" parent="1" vertex="1">
                    <mxGeometry x="417" y="749" width="349" height="248" as="geometry"/>
                </mxCell>
                <mxCell id="FWAWrkWRwMSGX0GFrVUf-24" value="&lt;p style=&quot;margin:0px;margin-top:4px;text-align:center;&quot;&gt;&lt;i&gt;&amp;lt;&amp;lt;Boundary&amp;gt;&amp;gt;&lt;/i&gt;&lt;br&gt;&lt;b&gt;SearchGUI&lt;/b&gt;&lt;/p&gt;&lt;hr size=&quot;1&quot; style=&quot;border-style:solid;&quot;&gt;&lt;p style=&quot;margin:0px;margin-left:4px;&quot;&gt;-btnsearchBar: Button&lt;/p&gt;&lt;p style=&quot;margin:0px;margin-left:4px;&quot;&gt;-btnExhibitOnMap: Button&lt;/p&gt;&lt;p style=&quot;margin:0px;margin-left:4px;&quot;&gt;-btnExhibitOnSearch: Button&lt;/p&gt;&lt;p style=&quot;margin:0px;margin-left:4px;&quot;&gt;-map: Map&lt;/p&gt;&lt;hr size=&quot;1&quot; style=&quot;border-style:solid;&quot;&gt;&lt;p style=&quot;margin:0px;margin-left:4px;&quot;&gt;+SearchGUI(): void&lt;/p&gt;&lt;p style=&quot;margin:0px;margin-left:4px;&quot;&gt;+searchBarPress(): void&lt;/p&gt;&lt;p style=&quot;margin:0px;margin-left:4px;&quot;&gt;+exhibitOnMapPress(): void&lt;/p&gt;&lt;p style=&quot;margin:0px;margin-left:4px;&quot;&gt;+exhibitOnSearchPress(): void&lt;/p&gt;&lt;p style=&quot;margin:0px;margin-left:4px;&quot;&gt;&lt;br&gt;&lt;/p&gt;" style="verticalAlign=top;align=left;overflow=fill;html=1;whiteSpace=wrap;" parent="1" vertex="1">
                    <mxGeometry x="36" y="768.5" width="235" height="209" as="geometry"/>
                </mxCell>
                <mxCell id="ZDG9h-u1bhO2M8_OGUBA-2" value="&lt;p style=&quot;margin:0px;margin-top:4px;text-align:center;&quot;&gt;&lt;i&gt;&amp;lt;&amp;lt;Boundary&amp;gt;&amp;gt;&lt;/i&gt;&lt;br&gt;&lt;b&gt;ExhibitProxy&lt;/b&gt;&lt;/p&gt;&lt;hr size=&quot;1&quot; style=&quot;border-style:solid;&quot;&gt;&lt;p style=&quot;margin:0px;margin-left:4px;&quot;&gt;&lt;br&gt;&lt;/p&gt;&lt;hr size=&quot;1&quot; style=&quot;border-style:solid;&quot;&gt;&lt;p style=&quot;margin:0px;margin-left:4px;&quot;&gt;+getExhibitById(id): Exhibit&lt;/p&gt;" style="verticalAlign=top;align=left;overflow=fill;html=1;whiteSpace=wrap;" parent="1" vertex="1">
                    <mxGeometry x="973" y="995" width="235" height="99" as="geometry"/>
                </mxCell>
                <mxCell id="ZDG9h-u1bhO2M8_OGUBA-4" value="&amp;lt;&amp;lt;Boundary&amp;gt;&amp;gt;&lt;br&gt;&lt;b&gt;ExhibitGUI&lt;/b&gt;&lt;div&gt;&lt;br/&gt;&lt;/div&gt;" style="swimlane;fontStyle=0;align=center;verticalAlign=top;childLayout=stackLayout;horizontal=1;startSize=55;horizontalStack=0;resizeParent=1;resizeParentMax=0;resizeLast=0;collapsible=0;marginBottom=0;html=1;whiteSpace=wrap;" parent="1" vertex="1">
                    <mxGeometry x="88" y="113" width="224" height="374" as="geometry"/>
                </mxCell>
                <mxCell id="ZDG9h-u1bhO2M8_OGUBA-6" value="-imgSelectedExhibit: Image&lt;div&gt;-lblTrafficDetails: string&lt;/div&gt;&lt;div&gt;-lblExhibitName: string&lt;/div&gt;&lt;div&gt;-lblHistoricalInfo: string&lt;/div&gt;&lt;div&gt;-lblAccessibilityDetails: string&lt;/div&gt;&lt;div&gt;-lblAudioDetails: string&lt;br&gt;&lt;div&gt;-btnAddFavourites: Button&lt;/div&gt;&lt;div&gt;-btnNavigate: Button&lt;/div&gt;&lt;div&gt;-btnMoreDetails: Button&lt;/div&gt;&lt;/div&gt;&lt;div&gt;-ratingStars: Image&lt;/div&gt;&lt;div&gt;-btnrating: Button&lt;/div&gt;&lt;div&gt;-accesibilityIcon: Image&lt;/div&gt;&lt;div&gt;-audioIcon: Image&lt;/div&gt;&lt;div&gt;-trafficIcon: Image&lt;/div&gt;" style="text;html=1;strokeColor=none;fillColor=none;align=left;verticalAlign=middle;spacingLeft=4;spacingRight=4;overflow=hidden;rotatable=0;points=[[0,0.5],[1,0.5]];portConstraint=eastwest;whiteSpace=wrap;" parent="ZDG9h-u1bhO2M8_OGUBA-4" vertex="1">
                    <mxGeometry y="55" width="224" height="208" as="geometry"/>
                </mxCell>
                <mxCell id="ZDG9h-u1bhO2M8_OGUBA-9" value="" style="line;strokeWidth=1;fillColor=none;align=left;verticalAlign=middle;spacingTop=-1;spacingLeft=3;spacingRight=3;rotatable=0;labelPosition=right;points=[];portConstraint=eastwest;" parent="ZDG9h-u1bhO2M8_OGUBA-4" vertex="1">
                    <mxGeometry y="263" width="224" height="8" as="geometry"/>
                </mxCell>
                <mxCell id="ZDG9h-u1bhO2M8_OGUBA-11" value="+ExhibitGUI():void&lt;div&gt;+navigatePress():void&lt;/div&gt;&lt;div&gt;+moreDetailsPress():void&lt;/div&gt;&lt;div&gt;+addFavouritesPress():void&lt;/div&gt;&lt;div&gt;+ratingPress():&lt;/div&gt;" style="text;html=1;strokeColor=none;fillColor=none;align=left;verticalAlign=middle;spacingLeft=4;spacingRight=4;overflow=hidden;rotatable=0;points=[[0,0.5],[1,0.5]];portConstraint=eastwest;whiteSpace=wrap;" parent="ZDG9h-u1bhO2M8_OGUBA-4" vertex="1">
                    <mxGeometry y="271" width="224" height="103" as="geometry"/>
                </mxCell>
                <mxCell id="ZDG9h-u1bhO2M8_OGUBA-12" value="&amp;lt;&amp;lt;Boundary&amp;gt;&amp;gt;&lt;br&gt;&lt;b&gt;ExhibitMoreDetailsGUI&lt;/b&gt;&lt;div&gt;&lt;br/&gt;&lt;/div&gt;" style="swimlane;fontStyle=0;align=center;verticalAlign=top;childLayout=stackLayout;horizontal=1;startSize=55;horizontalStack=0;resizeParent=1;resizeParentMax=0;resizeLast=0;collapsible=0;marginBottom=0;html=1;whiteSpace=wrap;" parent="1" vertex="1">
                    <mxGeometry x="495.5" y="373" width="228" height="276" as="geometry"/>
                </mxCell>
                <mxCell id="ZDG9h-u1bhO2M8_OGUBA-14" value="-imgSelectedExhibit: Image&lt;div&gt;-lblExhibitName: string&lt;/div&gt;&lt;div&gt;-lblHistoricalInfo: string&lt;/div&gt;&lt;div&gt;-txtExhibitDescription: TextBox&lt;/div&gt;&lt;div&gt;-btnAudio: Button&lt;/div&gt;&lt;div&gt;-swipeIcon: Image&lt;/div&gt;" style="text;html=1;strokeColor=none;fillColor=none;align=left;verticalAlign=middle;spacingLeft=4;spacingRight=4;overflow=hidden;rotatable=0;points=[[0,0.5],[1,0.5]];portConstraint=eastwest;whiteSpace=wrap;" parent="ZDG9h-u1bhO2M8_OGUBA-12" vertex="1">
                    <mxGeometry y="55" width="228" height="139" as="geometry"/>
                </mxCell>
                <mxCell id="ZDG9h-u1bhO2M8_OGUBA-17" value="" style="line;strokeWidth=1;fillColor=none;align=left;verticalAlign=middle;spacingTop=-1;spacingLeft=3;spacingRight=3;rotatable=0;labelPosition=right;points=[];portConstraint=eastwest;" parent="ZDG9h-u1bhO2M8_OGUBA-12" vertex="1">
                    <mxGeometry y="194" width="228" height="8" as="geometry"/>
                </mxCell>
                <mxCell id="ZDG9h-u1bhO2M8_OGUBA-19" value="+ExhibitMoreDetailsGUI():void&lt;div&gt;+audioPress():void&lt;/div&gt;&lt;div&gt;+nextPageSwipe():void&lt;/div&gt;" style="text;html=1;strokeColor=none;fillColor=none;align=left;verticalAlign=middle;spacingLeft=4;spacingRight=4;overflow=hidden;rotatable=0;points=[[0,0.5],[1,0.5]];portConstraint=eastwest;whiteSpace=wrap;" parent="ZDG9h-u1bhO2M8_OGUBA-12" vertex="1">
                    <mxGeometry y="202" width="228" height="74" as="geometry"/>
                </mxCell>
                <mxCell id="ZDG9h-u1bhO2M8_OGUBA-20" value="&amp;lt;&amp;lt;Controller&amp;gt;&amp;gt;&lt;br&gt;&lt;b&gt;ExhibitController&lt;/b&gt;&lt;div&gt;&lt;br/&gt;&lt;/div&gt;" style="swimlane;fontStyle=0;align=center;verticalAlign=top;childLayout=stackLayout;horizontal=1;startSize=55;horizontalStack=0;resizeParent=1;resizeParentMax=0;resizeLast=0;collapsible=0;marginBottom=0;html=1;whiteSpace=wrap;" parent="1" vertex="1">
                    <mxGeometry x="467" y="79" width="285" height="175" as="geometry"/>
                </mxCell>
                <mxCell id="ZDG9h-u1bhO2M8_OGUBA-25" value="" style="line;strokeWidth=1;fillColor=none;align=left;verticalAlign=middle;spacingTop=-1;spacingLeft=3;spacingRight=3;rotatable=0;labelPosition=right;points=[];portConstraint=eastwest;" parent="ZDG9h-u1bhO2M8_OGUBA-20" vertex="1">
                    <mxGeometry y="55" width="285" height="8" as="geometry"/>
                </mxCell>
                <mxCell id="ZDG9h-u1bhO2M8_OGUBA-27" value="+exhibitController(): void&lt;br&gt;&lt;div&gt;+addNewRating(rating: int, exhibit: Exhibit, user: User): float&lt;/div&gt;&lt;div&gt;+evaluateTraffic(): (enum: LOW, MEDIUM HIGH)&lt;/div&gt;&lt;div&gt;+playAudio(url: string): void&lt;/div&gt;&lt;div&gt;+addToFavourites(exhibit: Exhibit, user: User): void&lt;/div&gt;&lt;div&gt;&lt;br&gt;&lt;/div&gt;" style="text;html=1;strokeColor=none;fillColor=none;align=left;verticalAlign=middle;spacingLeft=4;spacingRight=4;overflow=hidden;rotatable=0;points=[[0,0.5],[1,0.5]];portConstraint=eastwest;whiteSpace=wrap;" parent="ZDG9h-u1bhO2M8_OGUBA-20" vertex="1">
                    <mxGeometry y="63" width="285" height="112" as="geometry"/>
                </mxCell>
                <mxCell id="ZDG9h-u1bhO2M8_OGUBA-28" value="&amp;lt;&amp;lt;Entity&amp;gt;&amp;gt;&lt;br&gt;&lt;b&gt;Exhibit&lt;/b&gt;&lt;div&gt;&lt;br/&gt;&lt;/div&gt;" style="swimlane;fontStyle=0;align=center;verticalAlign=top;childLayout=stackLayout;horizontal=1;startSize=55;horizontalStack=0;resizeParent=1;resizeParentMax=0;resizeLast=0;collapsible=0;marginBottom=0;html=1;whiteSpace=wrap;" parent="1" vertex="1">
                    <mxGeometry x="868" y="165" width="367" height="715" as="geometry"/>
                </mxCell>
                <mxCell id="ZDG9h-u1bhO2M8_OGUBA-30" value="-id: int&lt;br&gt;&lt;div&gt;-name: string&lt;/div&gt;&lt;div&gt;-category: List&amp;lt;string&amp;gt;&lt;/div&gt;&lt;div&gt;-historicalInfo: TextBox&lt;/div&gt;&lt;div&gt;&lt;div&gt;-visitingAvailability: boolean&lt;/div&gt;&lt;div&gt;-coordinates: Coordinates&lt;/div&gt;&lt;div&gt;-description: TextBox&lt;/div&gt;&lt;/div&gt;&lt;div&gt;&lt;span style=&quot;background-color: transparent; color: light-dark(rgb(0, 0, 0), rgb(255, 255, 255));&quot;&gt;-ratings: Map&amp;lt;User, int&amp;gt;&lt;/span&gt;&lt;/div&gt;&lt;div&gt;-favouredBy: List&amp;lt;User&amp;gt;&lt;/div&gt;&lt;div&gt;-wheelchairAccesible: boolean&lt;/div&gt;&lt;div&gt;-brailleSupport: boolean&lt;/div&gt;&lt;div&gt;-keywords: List&amp;lt;string&amp;gt;&lt;/div&gt;&lt;div&gt;&lt;br&gt;&lt;/div&gt;&lt;div&gt;&lt;br&gt;&lt;/div&gt;" style="text;html=1;strokeColor=none;fillColor=none;align=left;verticalAlign=middle;spacingLeft=4;spacingRight=4;overflow=hidden;rotatable=0;points=[[0,0.5],[1,0.5]];portConstraint=eastwest;whiteSpace=wrap;" parent="ZDG9h-u1bhO2M8_OGUBA-28" vertex="1">
                    <mxGeometry y="55" width="367" height="216" as="geometry"/>
                </mxCell>
                <mxCell id="ZDG9h-u1bhO2M8_OGUBA-33" value="" style="line;strokeWidth=1;fillColor=none;align=left;verticalAlign=middle;spacingTop=-1;spacingLeft=3;spacingRight=3;rotatable=0;labelPosition=right;points=[];portConstraint=eastwest;" parent="ZDG9h-u1bhO2M8_OGUBA-28" vertex="1">
                    <mxGeometry y="271" width="367" height="8" as="geometry"/>
                </mxCell>
                <mxCell id="ZDG9h-u1bhO2M8_OGUBA-35" value="&lt;div&gt;+Exhibit(): void&lt;/div&gt;&lt;div&gt;+setId(id: Int): void&lt;/div&gt;&lt;div&gt;+getId(): int&lt;/div&gt;&lt;div&gt;+setName(name: string): void&lt;/div&gt;+getName(): string&lt;div&gt;&lt;div&gt;+setHistoricalInfo(HistoricalInfo: TextBox): void&lt;/div&gt;&lt;div&gt;+getHistoricalInfo(): string&lt;/div&gt;&lt;div&gt;+setVisitingAvailability(visitngAvailability: boolean): void&lt;/div&gt;&lt;div&gt;+getVisitingAvailability(): boolean&lt;/div&gt;&lt;/div&gt;&lt;div&gt;&lt;div&gt;+setCategory(category: List&amp;lt;string&amp;gt;): void&lt;/div&gt;&lt;div&gt;+getCategory(): List&amp;lt;string&amp;gt;&lt;/div&gt;&lt;div&gt;+setFavouredBy(favouredBy: List&amp;lt;User&amp;gt;): void&lt;/div&gt;&lt;div&gt;+getFavouredBy(): List&amp;lt;User&amp;gt;&lt;/div&gt;&lt;div&gt;+setCoordinates(coordinates: Coordinates): void&lt;/div&gt;&lt;div&gt;+getCoordinates(): Coordinates&lt;/div&gt;&lt;/div&gt;&lt;div&gt;+setWheelChairAccesible(w&lt;span style=&quot;background-color: transparent; color: light-dark(rgb(0, 0, 0), rgb(255, 255, 255));&quot;&gt;heelChairAccesible: boolean): void&lt;/span&gt;&lt;/div&gt;&lt;div&gt;&lt;span style=&quot;background-color: transparent; color: light-dark(rgb(0, 0, 0), rgb(255, 255, 255));&quot;&gt;+get&lt;/span&gt;&lt;span style=&quot;background-color: transparent; color: light-dark(rgb(0, 0, 0), rgb(255, 255, 255));&quot;&gt;WheelChairAccesible(): boolean&lt;/span&gt;&lt;/div&gt;&lt;div&gt;&lt;span style=&quot;background-color: transparent; color: light-dark(rgb(0, 0, 0), rgb(255, 255, 255));&quot;&gt;+setBrailleSupport(b&lt;/span&gt;&lt;span style=&quot;background-color: transparent; color: light-dark(rgb(0, 0, 0), rgb(255, 255, 255));&quot;&gt;railleSupport: boolean): void&lt;/span&gt;&lt;/div&gt;&lt;div&gt;&lt;span style=&quot;background-color: transparent; color: light-dark(rgb(0, 0, 0), rgb(255, 255, 255));&quot;&gt;+getB&lt;/span&gt;&lt;span style=&quot;background-color: transparent; color: light-dark(rgb(0, 0, 0), rgb(255, 255, 255));&quot;&gt;railleSupport(): boolean&lt;/span&gt;&lt;/div&gt;&lt;div&gt;&lt;span style=&quot;background-color: transparent; color: light-dark(rgb(0, 0, 0), rgb(255, 255, 255));&quot;&gt;+setRatings(ratings: Map&amp;lt;User, int&amp;gt;): void&lt;/span&gt;&lt;/div&gt;&lt;div&gt;&lt;span style=&quot;background-color: transparent; color: light-dark(rgb(0, 0, 0), rgb(255, 255, 255));&quot;&gt;+getRatings():&amp;nbsp;&lt;/span&gt;&lt;span style=&quot;background-color: transparent; color: light-dark(rgb(0, 0, 0), rgb(255, 255, 255));&quot;&gt;Map&amp;lt;User, int&amp;gt;&lt;/span&gt;&lt;/div&gt;&lt;div&gt;&lt;span style=&quot;background-color: transparent; color: light-dark(rgb(0, 0, 0), rgb(255, 255, 255));&quot;&gt;+setKeywords(keywords: List&amp;lt;string&amp;gt;): void&lt;/span&gt;&lt;/div&gt;&lt;div&gt;&lt;span style=&quot;background-color: transparent; color: light-dark(rgb(0, 0, 0), rgb(255, 255, 255));&quot;&gt;+getKeywords():&amp;nbsp;&lt;/span&gt;&lt;span style=&quot;background-color: transparent; color: light-dark(rgb(0, 0, 0), rgb(255, 255, 255));&quot;&gt;List&amp;lt;string&amp;gt;&lt;/span&gt;&lt;/div&gt;&lt;div&gt;&lt;span style=&quot;background-color: transparent; color: light-dark(rgb(0, 0, 0), rgb(255, 255, 255));&quot;&gt;+setDescription(description: TextBox): void&lt;/span&gt;&lt;/div&gt;&lt;div&gt;&lt;span style=&quot;background-color: transparent; color: light-dark(rgb(0, 0, 0), rgb(255, 255, 255));&quot;&gt;+getDescription(): TextBox&lt;/span&gt;&lt;/div&gt;" style="text;html=1;strokeColor=none;fillColor=none;align=left;verticalAlign=middle;spacingLeft=4;spacingRight=4;overflow=hidden;rotatable=0;points=[[0,0.5],[1,0.5]];portConstraint=eastwest;whiteSpace=wrap;" parent="ZDG9h-u1bhO2M8_OGUBA-28" vertex="1">
                    <mxGeometry y="279" width="367" height="436" as="geometry"/>
                </mxCell>
                <mxCell id="ZDG9h-u1bhO2M8_OGUBA-36" value="&amp;lt;&amp;lt;Entity&amp;gt;&amp;gt;&lt;br&gt;&lt;b&gt;User&lt;/b&gt;&lt;div&gt;&lt;br/&gt;&lt;/div&gt;" style="swimlane;fontStyle=0;align=center;verticalAlign=top;childLayout=stackLayout;horizontal=1;startSize=55;horizontalStack=0;resizeParent=1;resizeParentMax=0;resizeLast=0;collapsible=0;marginBottom=0;html=1;whiteSpace=wrap;" parent="1" vertex="1">
                    <mxGeometry x="1311" y="447" width="305" height="424" as="geometry"/>
                </mxCell>
                <mxCell id="ZDG9h-u1bhO2M8_OGUBA-38" value="&lt;div&gt;-id: int&lt;/div&gt;-name: string&lt;div&gt;-ratings: Map&amp;lt;Exhibit, int&amp;gt;&lt;/div&gt;&lt;div&gt;-favourites: List&amp;lt;Exhibit&amp;gt;&lt;/div&gt;&lt;div&gt;-personalizationAvailable: Boolean&lt;/div&gt;&lt;div&gt;-preferences: List&amp;lt;string&amp;gt;&lt;/div&gt;&lt;div&gt;&lt;br&gt;&lt;/div&gt;&lt;div&gt;&lt;br&gt;&lt;/div&gt;" style="text;html=1;strokeColor=none;fillColor=none;align=left;verticalAlign=middle;spacingLeft=4;spacingRight=4;overflow=hidden;rotatable=0;points=[[0,0.5],[1,0.5]];portConstraint=eastwest;whiteSpace=wrap;" parent="ZDG9h-u1bhO2M8_OGUBA-36" vertex="1">
                    <mxGeometry y="55" width="305" height="157" as="geometry"/>
                </mxCell>
                <mxCell id="ZDG9h-u1bhO2M8_OGUBA-41" value="" style="line;strokeWidth=1;fillColor=none;align=left;verticalAlign=middle;spacingTop=-1;spacingLeft=3;spacingRight=3;rotatable=0;labelPosition=right;points=[];portConstraint=eastwest;" parent="ZDG9h-u1bhO2M8_OGUBA-36" vertex="1">
                    <mxGeometry y="212" width="305" height="8" as="geometry"/>
                </mxCell>
                <mxCell id="ZDG9h-u1bhO2M8_OGUBA-43" value="&lt;div&gt;&lt;div&gt;+User():void&lt;/div&gt;&lt;div&gt;+setName(name: string): void&lt;/div&gt;&lt;div&gt;+getName(): string&lt;/div&gt;&lt;/div&gt;&lt;div&gt;+setId(id: int): void&lt;/div&gt;&lt;div&gt;+getId(): int&lt;/div&gt;+addToFavourites(exhibit:Exhibit): void&lt;div&gt;+removeFromFavourites(exhibit: Exhibit): void&lt;/div&gt;&lt;div&gt;+rateExhibit(exhibit: Exhibit, value: Int): void&lt;/div&gt;&lt;div&gt;+searchExhibit(title: String): list&amp;lt;Exhibit&amp;gt;&lt;/div&gt;&lt;div&gt;+modifyRating(rating:Rating, new_rating: int): void&lt;/div&gt;&lt;div&gt;+deleteRating(rating: Rating):void&lt;/div&gt;&lt;div&gt;&lt;br&gt;&lt;/div&gt;&lt;div&gt;&lt;br&gt;&lt;/div&gt;" style="text;html=1;strokeColor=none;fillColor=none;align=left;verticalAlign=middle;spacingLeft=4;spacingRight=4;overflow=hidden;rotatable=0;points=[[0,0.5],[1,0.5]];portConstraint=eastwest;whiteSpace=wrap;" parent="ZDG9h-u1bhO2M8_OGUBA-36" vertex="1">
                    <mxGeometry y="220" width="305" height="204" as="geometry"/>
                </mxCell>
                <mxCell id="ZDG9h-u1bhO2M8_OGUBA-45" value="1" style="text;html=1;align=center;verticalAlign=middle;resizable=0;points=[];autosize=1;strokeColor=none;fillColor=none;" parent="1" vertex="1">
                    <mxGeometry x="271" y="878" width="25" height="26" as="geometry"/>
                </mxCell>
                <mxCell id="ZDG9h-u1bhO2M8_OGUBA-46" value="1" style="text;html=1;align=center;verticalAlign=middle;resizable=0;points=[];autosize=1;strokeColor=none;fillColor=none;" parent="1" vertex="1">
                    <mxGeometry x="392" y="878" width="25" height="26" as="geometry"/>
                </mxCell>
                <mxCell id="ZDG9h-u1bhO2M8_OGUBA-49" value="" style="endArrow=none;html=1;endSize=12;startArrow=none;startSize=14;startFill=0;edgeStyle=orthogonalEdgeStyle;align=center;verticalAlign=bottom;endFill=0;rounded=0;exitX=0.998;exitY=0.63;exitDx=0;exitDy=0;exitPerimeter=0;entryX=-0.002;entryY=0.614;entryDx=0;entryDy=0;entryPerimeter=0;" parent="1" source="FWAWrkWRwMSGX0GFrVUf-24" target="FWAWrkWRwMSGX0GFrVUf-23" edge="1">
                    <mxGeometry y="3" relative="1" as="geometry">
                        <mxPoint x="282" y="901" as="sourcePoint"/>
                        <mxPoint x="397" y="901" as="targetPoint"/>
                    </mxGeometry>
                </mxCell>
                <mxCell id="ZDG9h-u1bhO2M8_OGUBA-53" value="0..1" style="text;html=1;align=center;verticalAlign=middle;resizable=0;points=[];autosize=1;strokeColor=none;fillColor=none;" parent="1" vertex="1">
                    <mxGeometry x="762" y="885" width="38" height="26" as="geometry"/>
                </mxCell>
                <mxCell id="ZDG9h-u1bhO2M8_OGUBA-54" value="1" style="text;html=1;align=center;verticalAlign=middle;resizable=0;points=[];autosize=1;strokeColor=none;fillColor=none;" parent="1" vertex="1">
                    <mxGeometry x="1469" y="871" width="25" height="26" as="geometry"/>
                </mxCell>
                <mxCell id="ZDG9h-u1bhO2M8_OGUBA-55" value="" style="endArrow=none;html=1;endSize=12;startArrow=none;startSize=14;startFill=0;edgeStyle=orthogonalEdgeStyle;align=center;verticalAlign=bottom;endFill=0;rounded=0;exitX=1;exitY=0.043;exitDx=0;exitDy=0;exitPerimeter=0;entryX=0.008;entryY=0.319;entryDx=0;entryDy=0;entryPerimeter=0;" parent="1" source="ZDG9h-u1bhO2M8_OGUBA-6" target="ZDG9h-u1bhO2M8_OGUBA-27" edge="1">
                    <mxGeometry x="-0.0193" y="2" relative="1" as="geometry">
                        <mxPoint x="324" y="177" as="sourcePoint"/>
                        <mxPoint x="437" y="177" as="targetPoint"/>
                        <mxPoint x="1" y="-1" as="offset"/>
                    </mxGeometry>
                </mxCell>
                <mxCell id="ZDG9h-u1bhO2M8_OGUBA-56" value="1" style="text;html=1;align=center;verticalAlign=middle;resizable=0;points=[];autosize=1;strokeColor=none;fillColor=none;" parent="1" vertex="1">
                    <mxGeometry x="307" y="149" width="25" height="26" as="geometry"/>
                </mxCell>
                <mxCell id="ZDG9h-u1bhO2M8_OGUBA-57" value="1" style="text;html=1;align=center;verticalAlign=middle;resizable=0;points=[];autosize=1;strokeColor=none;fillColor=none;" parent="1" vertex="1">
                    <mxGeometry x="437" y="149" width="25" height="26" as="geometry"/>
                </mxCell>
                <mxCell id="ZDG9h-u1bhO2M8_OGUBA-59" value="1" style="text;html=1;align=center;verticalAlign=middle;resizable=0;points=[];autosize=1;strokeColor=none;fillColor=none;" parent="1" vertex="1">
                    <mxGeometry x="608" y="257" width="25" height="26" as="geometry"/>
                </mxCell>
                <mxCell id="ZDG9h-u1bhO2M8_OGUBA-60" value="1" style="text;html=1;align=center;verticalAlign=middle;resizable=0;points=[];autosize=1;strokeColor=none;fillColor=none;" parent="1" vertex="1">
                    <mxGeometry x="608" y="352" width="25" height="26" as="geometry"/>
                </mxCell>
                <mxCell id="ZDG9h-u1bhO2M8_OGUBA-61" value="" style="endArrow=none;html=1;endSize=12;startArrow=none;startSize=14;startFill=0;edgeStyle=orthogonalEdgeStyle;align=center;verticalAlign=bottom;endFill=0;rounded=0;exitX=0.504;exitY=1.002;exitDx=0;exitDy=0;exitPerimeter=0;entryX=0.539;entryY=0;entryDx=0;entryDy=0;entryPerimeter=0;" parent="1" source="ZDG9h-u1bhO2M8_OGUBA-27" target="ZDG9h-u1bhO2M8_OGUBA-12" edge="1">
                    <mxGeometry y="3" relative="1" as="geometry">
                        <mxPoint x="608.91" y="270" as="sourcePoint"/>
                        <mxPoint x="609" y="425" as="targetPoint"/>
                        <Array as="points">
                            <mxPoint x="609" y="254"/>
                        </Array>
                    </mxGeometry>
                </mxCell>
                <mxCell id="ZDG9h-u1bhO2M8_OGUBA-63" value="" style="endArrow=none;html=1;endSize=12;startArrow=none;startSize=14;startFill=0;edgeStyle=orthogonalEdgeStyle;align=center;verticalAlign=bottom;endFill=0;rounded=0;exitX=1.004;exitY=0.143;exitDx=0;exitDy=0;exitPerimeter=0;entryX=0.376;entryY=0.002;entryDx=0;entryDy=0;entryPerimeter=0;" parent="1" source="ZDG9h-u1bhO2M8_OGUBA-20" target="ZDG9h-u1bhO2M8_OGUBA-28" edge="1">
                    <mxGeometry y="3" relative="1" as="geometry">
                        <mxPoint x="855" y="104" as="sourcePoint"/>
                        <mxPoint x="1015" y="104" as="targetPoint"/>
                        <Array as="points">
                            <mxPoint x="1006" y="104"/>
                        </Array>
                    </mxGeometry>
                </mxCell>
                <mxCell id="ZDG9h-u1bhO2M8_OGUBA-64" value="1" style="text;html=1;align=center;verticalAlign=middle;resizable=0;points=[];autosize=1;strokeColor=none;fillColor=none;" parent="1" vertex="1">
                    <mxGeometry x="755" y="77" width="25" height="26" as="geometry"/>
                </mxCell>
                <mxCell id="ZDG9h-u1bhO2M8_OGUBA-65" value="1" style="text;html=1;align=center;verticalAlign=middle;resizable=0;points=[];autosize=1;strokeColor=none;fillColor=none;" parent="1" vertex="1">
                    <mxGeometry x="1006" y="138" width="25" height="26" as="geometry"/>
                </mxCell>
                <mxCell id="ZDG9h-u1bhO2M8_OGUBA-69" value="" style="endArrow=none;html=1;endSize=12;startArrow=none;startSize=14;startFill=0;edgeStyle=orthogonalEdgeStyle;align=center;verticalAlign=bottom;endFill=0;rounded=0;exitX=0.587;exitY=1.031;exitDx=0;exitDy=0;exitPerimeter=0;" parent="1" source="ZDG9h-u1bhO2M8_OGUBA-43" target="FWAWrkWRwMSGX0GFrVUf-23" edge="1">
                    <mxGeometry y="3" relative="1" as="geometry">
                        <mxPoint x="1471" y="1079" as="sourcePoint"/>
                        <mxPoint x="1053" y="656" as="targetPoint"/>
                        <Array as="points">
                            <mxPoint x="1490" y="904"/>
                        </Array>
                    </mxGeometry>
                </mxCell>
                <mxCell id="ZDG9h-u1bhO2M8_OGUBA-75" value="" style="endArrow=none;html=1;endSize=12;startArrow=none;startSize=14;startFill=0;edgeStyle=orthogonalEdgeStyle;align=center;verticalAlign=bottom;endFill=0;rounded=0;entryX=0.5;entryY=0;entryDx=0;entryDy=0;" parent="1" target="ZDG9h-u1bhO2M8_OGUBA-2" edge="1">
                    <mxGeometry y="3" relative="1" as="geometry">
                        <mxPoint x="772" y="968" as="sourcePoint"/>
                        <mxPoint x="904" y="1056" as="targetPoint"/>
                    </mxGeometry>
                </mxCell>
                <mxCell id="ZDG9h-u1bhO2M8_OGUBA-76" value="1" style="text;html=1;align=center;verticalAlign=middle;resizable=0;points=[];autosize=1;strokeColor=none;fillColor=none;" parent="1" vertex="1">
                    <mxGeometry x="766" y="942" width="25" height="26" as="geometry"/>
                </mxCell>
                <mxCell id="ZDG9h-u1bhO2M8_OGUBA-77" value="1" style="text;html=1;align=center;verticalAlign=middle;resizable=0;points=[];autosize=1;strokeColor=none;fillColor=none;" parent="1" vertex="1">
                    <mxGeometry x="1097" y="967" width="25" height="26" as="geometry"/>
                </mxCell>
                <mxCell id="ZDG9h-u1bhO2M8_OGUBA-78" value="" style="endArrow=none;html=1;endSize=12;startArrow=none;startSize=14;startFill=0;edgeStyle=orthogonalEdgeStyle;align=center;verticalAlign=bottom;endFill=0;rounded=0;exitX=1;exitY=0.5;exitDx=0;exitDy=0;entryX=0;entryY=0.5;entryDx=0;entryDy=0;" parent="1" source="ZDG9h-u1bhO2M8_OGUBA-27" target="ZDG9h-u1bhO2M8_OGUBA-2" edge="1">
                    <mxGeometry y="3" relative="1" as="geometry">
                        <mxPoint x="990" y="664" as="sourcePoint"/>
                        <mxPoint x="823" y="1059" as="targetPoint"/>
                        <Array as="points">
                            <mxPoint x="825" y="198"/>
                            <mxPoint x="825" y="1045"/>
                        </Array>
                    </mxGeometry>
                </mxCell>
                <mxCell id="ZDG9h-u1bhO2M8_OGUBA-79" value="1" style="text;html=1;align=center;verticalAlign=middle;resizable=0;points=[];autosize=1;strokeColor=none;fillColor=none;" parent="1" vertex="1">
                    <mxGeometry x="762" y="158" width="25" height="26" as="geometry"/>
                </mxCell>
                <mxCell id="ZDG9h-u1bhO2M8_OGUBA-80" value="1" style="text;html=1;align=center;verticalAlign=middle;resizable=0;points=[];autosize=1;strokeColor=none;fillColor=none;" parent="1" vertex="1">
                    <mxGeometry x="934" y="1012" width="25" height="26" as="geometry"/>
                </mxCell>
                <mxCell id="o77Pc_rsdqXejE5tod_p-1" value="Exhibit Information" style="shape=umlFrame;whiteSpace=wrap;html=1;pointerEvents=0;recursiveResize=0;container=1;collapsible=0;width=160;" parent="1" vertex="1">
                    <mxGeometry x="20" y="32" width="1628" height="1079" as="geometry"/>
                </mxCell>
            </root>
        </mxGraphModel>
    </diagram>
</mxfile>